HIERARCHY
ROOT hip
{
	OFFSET 0.000000 0.000000 0.000000 
	CHANNELS 6 Xposition Yposition Zposition Xrotation Zrotation Yrotation
	JOINT abdomen
	{
		OFFSET 0.000000 3.402643 0.000000 
		CHANNELS 3 Xrotation Zrotation Yrotation
		JOINT chest
		{
			OFFSET 0.000000 8.438565 -0.680529 
			CHANNELS 3 Xrotation Zrotation Yrotation
			JOINT neck
			{
				OFFSET 0.000000 10.207942 -0.272212 
				CHANNELS 3 Xrotation Zrotation Yrotation
				JOINT head
				{
					OFFSET 0.000000 3.130431 0.000000 
					CHANNELS 3 Xrotation Zrotation Yrotation
					End Site
					{
						OFFSET 0.000000 3.130435 0.000000 
					}
				}
			}
			JOINT lCollar
			{
				OFFSET 3.470700 6.669187 -0.816635 
				CHANNELS 3 Yrotation Zrotation Xrotation
				JOINT lShldr
				{
					OFFSET 3.198488 0.000000 0.000000 
					CHANNELS 3 Zrotation Yrotation Xrotation
					JOINT lForeArm
					{
						OFFSET 10.139888 0.000000 0.000000 
						CHANNELS 3 Yrotation Zrotation Xrotation
						JOINT lHand
						{
							OFFSET 8.370511 0.000000 0.000000 
							CHANNELS 3 Zrotation Yrotation Xrotation
							End Site
							{
								OFFSET 4.083176 0.000000 0.000000 
							}
						}
					}
				}
			}
			JOINT rCollar
			{
				OFFSET -3.470700 6.669187 -0.816635 
				CHANNELS 3 Yrotation Zrotation Xrotation
				JOINT rShldr
				{
					OFFSET -3.198488 0.000000 0.000000 
					CHANNELS 3 Zrotation Yrotation Xrotation
					JOINT rForeArm
					{
						OFFSET -10.139888 0.000000 0.000000 
						CHANNELS 3 Yrotation Zrotation Xrotation
						JOINT rHand
						{
							OFFSET -8.370511 0.000000 0.000000 
							CHANNELS 3 Zrotation Yrotation Xrotation
							End Site
							{
								OFFSET -4.083176 0.000000 0.000000 
							}
						}
					}
				}
			}
		}
	}
	JOINT lThigh
	{
		OFFSET 5.308129 -1.633274 1.361059 
		CHANNELS 3 Xrotation Zrotation Yrotation
		JOINT lShin
		{
			OFFSET -2.041588 -20.007561 0.000000 
			CHANNELS 3 Xrotation Zrotation Yrotation
			JOINT lFoot
			{
				OFFSET 0.000000 -19.190928 -1.224953 
				CHANNELS 3 Xrotation Yrotation Zrotation
				End Site
				{
					OFFSET 0.000000 -2.449906 4.627600 
				}
			}
		}
	}
	JOINT rThigh
	{
		OFFSET -5.308129 -1.633274 1.361059 
		CHANNELS 3 Xrotation Zrotation Yrotation
		JOINT rShin
		{
			OFFSET 2.041588 -20.007561 0.000000 
			CHANNELS 3 Xrotation Zrotation Yrotation
			JOINT rFoot
			{
				OFFSET 0.000000 -19.190928 -1.224953 
				CHANNELS 3 Xrotation Yrotation Zrotation
				End Site
				{
					OFFSET 0.000000 -2.449906 4.627600 
				}
			}
		}
	}
}
MOTION
Frames: 13
Frame Time: 0.016667
-0.479881 50.317127 2.260790 -0.233693 2.021994 9.615739 24.131306 -1.654556 4.708729 -21.158955 -4.151913 5.335832 -17.883909 6.715806 15.381917 0.723260 -11.232281 18.908928 2.733565 -4.746560 -0.009721 -69.518311 -5.566432 -1.929790 -11.279385 0.816708 9.326882 -11.078024 16.470495 -3.185765 6.376504 -2.647569 -0.009695 82.341599 -1.959817 -1.165345 28.730768 -2.751554 33.283871 18.828133 0.086339 0.019137 -12.706513 -1.572698 9.117524 20.398523 -1.507587 -1.921042 -7.134547 -15.144228 -14.255436 -7.895832 -7.621134 -8.148808 69.020004 -1.152251 4.035402 -0.298417 -6.764083 11.968428 
-0.325099 50.431892 3.279752 -0.354719 1.471259 10.042489 24.273281 -1.275989 4.122027 -21.416384 -3.144041 4.626099 -17.550968 6.962886 15.321071 0.099576 -11.821690 19.110371 2.382046 -4.492593 -0.009727 -69.749458 -5.321390 7.418121 -13.717169 0.490601 4.241948 -10.657952 16.251892 -3.023332 6.962891 -2.177735 0.000371 82.127792 -3.875795 -1.939002 26.550615 -3.286606 39.051178 18.916277 0.326504 0.101622 -11.569213 -1.133074 8.505225 20.820232 -1.488220 -1.949652 -8.976717 -14.915224 -14.733901 -10.952171 -7.046705 -8.029768 70.725174 -1.269207 4.062634 -1.865777 -8.027191 11.710873 
-0.245773 50.545219 4.338024 -0.786907 0.690803 10.743046 24.606968 -0.848063 3.457375 -21.660715 -1.763653 3.820155 -17.037628 7.241716 15.163688 -0.407956 -12.282291 19.154501 2.050153 -3.681990 -0.009739 -70.530724 -5.802873 13.230827 -15.780935 0.346712 2.923090 -11.015630 16.271908 -3.131563 7.177374 -2.130126 -0.009682 82.304367 -5.425673 -4.717180 23.703016 -3.556950 46.582462 18.613960 0.512132 0.162265 -10.189468 -0.332542 7.553398 21.231411 -1.478582 -1.979498 -10.540787 -14.629024 -15.087765 -13.426316 -6.210314 -8.340100 70.248451 -1.230302 4.041481 -1.935581 -8.373965 11.687402 
-0.166452 50.658535 5.396221 -1.228378 -0.086143 11.445314 24.940475 -0.419423 2.793037 -21.934048 -0.380335 3.007876 -16.535589 7.520908 15.005439 -0.925991 -12.742738 19.199915 1.708495 -2.871385 -0.009749 -71.347702 -6.206998 19.045080 -17.846422 0.253891 1.608263 -11.384101 16.300253 -3.241991 7.382462 -2.071567 -0.009678 82.543999 -6.961306 -7.512121 20.927410 -4.193900 54.094215 18.321560 0.689096 0.217995 -8.822352 0.487166 6.628923 21.633091 -1.468945 -1.998809 -12.048463 -14.338167 -15.435163 -15.863311 -5.378078 -8.703230 69.761177 -1.201066 4.032314 -1.994905 -8.723258 11.662704 
-0.101828 50.757793 6.506856 -1.934959 -0.667414 12.491080 25.482737 -0.165923 1.914054 -22.117817 1.122321 2.061108 -16.004976 7.805344 14.710833 -1.329281 -12.959243 19.037710 1.698947 -1.592086 -0.009758 -72.367737 -7.131589 23.897133 -19.936169 0.251297 1.542417 -12.205062 16.388124 -3.499635 7.206661 -2.188725 -0.009681 82.779556 -7.956147 -14.618484 17.744448 -4.304345 63.912415 17.784040 0.579521 0.175718 -7.162668 1.199513 5.430995 21.877037 -1.455590 -2.048165 -12.977312 -14.062395 -15.616241 -16.883427 -4.794355 -9.568926 66.838524 -0.995869 3.971267 -3.477272 -8.461695 11.469001 
-0.037204 50.857048 7.617452 -2.650895 -1.234216 13.548030 26.017227 0.087876 1.044936 -22.331926 2.616693 1.114795 -15.473428 8.099421 14.424954 -1.731343 -13.176045 18.873611 1.679633 -0.322552 -0.009761 -73.461113 -7.975391 28.769854 -22.025665 0.243032 1.475735 -13.034765 16.483126 -3.756042 7.040627 -2.296119 -0.009684 83.133186 -8.925042 -21.754850 14.642660 -4.947170 73.715759 17.246584 0.459897 0.132621 -5.519263 1.958991 4.232396 22.141703 -1.445706 -2.060201 -13.902969 -13.804484 -15.803555 -17.893000 -4.225536 -10.440583 63.943966 -0.800736 3.923734 -4.956934 -8.221253 11.272648 
0.066594 50.921703 8.752044 -3.098696 -1.673501 14.498417 26.153215 0.244139 0.205118 -22.354727 3.974567 0.264392 -15.034263 8.389192 14.011070 -1.913725 -13.091982 18.503414 1.894531 0.644531 0.000000 -74.225960 -9.223511 32.079914 -24.037800 0.236441 1.462795 -13.591014 16.695316 -3.970975 6.796503 -2.198421 -0.009690 82.868439 -9.242479 -31.893309 12.011259 -4.767929 85.045052 17.135616 -1.546294 -0.486983 -4.095040 2.583142 3.205744 22.416456 -1.436056 -2.063030 -14.667326 -13.348489 -15.884329 -18.354166 -3.884667 -10.951952 59.549114 -0.517604 3.802104 -7.445220 -7.143062 11.145808 
0.170392 50.986355 9.886645 -3.548408 -2.099208 15.440181 26.284517 0.410131 -0.634749 -22.398436 5.331751 -0.587940 -14.584814 8.698500 13.597559 -2.095138 -13.007666 18.125948 2.099882 1.601205 -0.010028 -75.072388 -10.415577 35.424263 -26.059916 0.239544 1.447652 -14.159580 16.913731 -4.195230 6.552380 -2.090958 -0.009695 82.659523 -9.614529 -42.038475 9.393707 -5.111306 96.375870 17.046150 -3.554826 -1.099599 -2.685601 3.242179 2.203806 22.720327 -1.429643 -2.067930 -15.448621 -12.902320 -15.957895 -18.805365 -3.553834 -11.454520 55.163960 -0.216613 3.659704 -9.912840 -6.083019 11.013694 
0.277836 50.968849 11.006361 -3.780332 -2.505046 16.119293 26.248901 0.468624 -1.328160 -22.477810 6.512091 -1.267142 -14.213185 8.993981 13.054563 -2.101884 -12.636897 17.547235 2.187874 2.196893 -0.010126 -75.597145 -11.663185 36.953621 -27.860970 0.201727 1.096522 -14.330483 16.966045 -4.271585 6.464536 -1.817506 -0.009699 81.747566 -10.625295 -52.391972 9.156194 -4.895894 105.003746 18.631025 -5.844576 -2.017634 -1.327158 3.863851 1.501334 22.867529 -1.420414 -2.073888 -16.828119 -12.393030 -16.172831 -18.854471 -3.192460 -11.985864 49.265385 0.126993 3.444546 -11.055488 -4.931545 11.157745 
0.385279 50.951340 12.126065 -4.021956 -2.907717 16.799194 26.211958 0.527019 -2.011723 -22.565907 7.690904 -1.950173 -13.844903 9.299396 12.511918 -2.117480 -12.272430 16.959694 2.266103 2.802348 -0.010224 -76.167534 -12.892479 38.506432 -29.663197 0.170424 0.746772 -14.489184 17.030712 -4.335848 6.376691 -1.544053 -0.009702 81.028961 -11.791917 -62.755470 8.882349 -4.725063 113.622650 20.251926 -8.112326 -2.990979 0.018940 4.498934 0.812169 23.044104 -1.410222 -2.081171 -18.204376 -11.897677 -16.350357 -18.899477 -2.829894 -12.507100 43.366283 0.475457 3.152638 -12.188174 -3.779168 11.316390 
0.488266 50.854214 13.204516 -3.937707 -3.190369 17.224674 26.065907 0.399982 -2.587895 -22.812799 8.644430 -2.469432 -13.545259 9.590178 11.847667 -2.021206 -11.661180 16.190805 2.021960 2.792624 -0.010224 -76.083511 -13.841561 38.571213 -31.318579 0.110178 0.091769 -14.007028 16.750772 -4.120960 6.415797 -1.290154 -0.009702 79.873085 -13.247985 -73.267273 9.637578 -4.523666 119.223587 21.421297 -8.177838 -3.205160 0.925756 4.991777 0.394873 23.553196 -1.390939 -2.113682 -19.452768 -11.655284 -16.554403 -18.814865 -2.577102 -13.536637 36.505959 0.810374 2.807811 -11.783561 -2.190326 11.704674 
0.591249 50.757076 14.282973 -3.860077 -3.481021 17.640877 25.913181 0.263270 -3.164074 -23.057163 9.586775 -2.990941 -13.250479 9.880640 11.194941 -1.927995 -11.061965 15.429543 1.777820 2.792666 -0.010225 -75.996056 -14.790836 38.633991 -32.960171 0.058550 -0.557186 -13.525956 16.459049 -3.908522 6.454905 -1.026489 -0.009702 78.999130 -14.882774 -83.807526 10.356171 -4.255053 124.816628 22.600340 -8.228399 -3.420862 1.845950 5.506978 0.016377 24.051744 -1.377622 -2.156413 -20.713285 -11.437978 -16.764914 -18.732771 -2.321778 -14.536058 29.639429 1.137318 2.419317 -11.398730 -0.606169 12.045287 
0.656528 50.561665 15.393100 -3.787162 -3.811052 17.882149 25.763527 0.126703 -3.593742 -23.354395 10.372887 -3.384609 -12.990479 10.116590 10.437879 -1.754491 -10.264381 14.523396 1.572672 2.382545 -0.010159 -75.452736 -15.574622 38.140591 -34.377583 -0.072419 -1.821875 -12.781754 16.009249 -3.587404 6.747897 -0.889819 -0.009697 77.831169 -16.480030 -94.535873 11.012646 -4.068805 128.531082 23.056145 -7.429578 -3.150296 2.489488 6.121081 -0.243596 25.303452 -1.328415 -2.260096 -22.170095 -11.349855 -17.083971 -18.341860 -1.598936 -15.156074 22.763449 1.390331 2.014275 -10.488382 0.283908 12.248747 
